<mxfile host="app.diagrams.net" modified="2023-04-13T11:56:33.477Z" agent="Mozilla/5.0 (Windows NT 10.0; Win64; x64) AppleWebKit/537.36 (KHTML, like Gecko) Chrome/112.0.0.0 Safari/537.36" version="21.1.7" etag="rTCduZrxSMiOJSULv6VV" type="device">
  <diagram id="C5RBs43oDa-KdzZeNtuy" name="Page-1">
    <mxGraphModel dx="2318" dy="1906" grid="1" gridSize="10" guides="1" tooltips="1" connect="1" arrows="1" fold="1" page="1" pageScale="1" pageWidth="827" pageHeight="1169" math="0" shadow="0">
      <root>
        <mxCell id="WIyWlLk6GJQsqaUBKTNV-0" />
        <mxCell id="WIyWlLk6GJQsqaUBKTNV-1" parent="WIyWlLk6GJQsqaUBKTNV-0" />
        <mxCell id="NzxyPe-S2gzE09yL93nO-0" value="" style="rounded=0;html=1;jettySize=auto;orthogonalLoop=1;fontSize=11;endArrow=block;endFill=0;endSize=8;strokeWidth=1;shadow=0;labelBackgroundColor=none;edgeStyle=orthogonalEdgeStyle;exitX=0.5;exitY=1;exitDx=0;exitDy=0;entryX=0.5;entryY=0;entryDx=0;entryDy=0;" edge="1" parent="WIyWlLk6GJQsqaUBKTNV-1" source="NzxyPe-S2gzE09yL93nO-6" target="NzxyPe-S2gzE09yL93nO-11">
          <mxGeometry relative="1" as="geometry">
            <mxPoint x="220" y="110" as="targetPoint" />
          </mxGeometry>
        </mxCell>
        <mxCell id="NzxyPe-S2gzE09yL93nO-6" value="&lt;b&gt;Start&lt;/b&gt;" style="ellipse;whiteSpace=wrap;html=1;" vertex="1" parent="WIyWlLk6GJQsqaUBKTNV-1">
          <mxGeometry x="165" y="10" width="110" height="50" as="geometry" />
        </mxCell>
        <mxCell id="NzxyPe-S2gzE09yL93nO-8" value="" style="rounded=0;html=1;jettySize=auto;orthogonalLoop=1;fontSize=11;endArrow=block;endFill=0;endSize=8;strokeWidth=1;shadow=0;labelBackgroundColor=none;edgeStyle=orthogonalEdgeStyle;exitX=0.5;exitY=1;exitDx=0;exitDy=0;entryX=0.5;entryY=0;entryDx=0;entryDy=0;" edge="1" parent="WIyWlLk6GJQsqaUBKTNV-1" source="NzxyPe-S2gzE09yL93nO-11" target="NzxyPe-S2gzE09yL93nO-26">
          <mxGeometry relative="1" as="geometry">
            <mxPoint x="220" y="160" as="sourcePoint" />
            <mxPoint x="220" y="200" as="targetPoint" />
          </mxGeometry>
        </mxCell>
        <mxCell id="NzxyPe-S2gzE09yL93nO-11" value="Input: Video Stream" style="shape=parallelogram;perimeter=parallelogramPerimeter;whiteSpace=wrap;html=1;fixedSize=1;" vertex="1" parent="WIyWlLk6GJQsqaUBKTNV-1">
          <mxGeometry x="132.5" y="100" width="175" height="50" as="geometry" />
        </mxCell>
        <mxCell id="NzxyPe-S2gzE09yL93nO-15" value="If the&amp;nbsp;confidence_value is&lt;br&gt;&amp;nbsp;&lt;b&gt;greater than or equal to&lt;br&gt;&lt;/b&gt;&amp;nbsp;detection_threshold&amp;nbsp;&amp;nbsp;" style="rhombus;whiteSpace=wrap;html=1;" vertex="1" parent="WIyWlLk6GJQsqaUBKTNV-1">
          <mxGeometry x="109.6" y="510" width="220.79" height="190" as="geometry" />
        </mxCell>
        <mxCell id="NzxyPe-S2gzE09yL93nO-19" value="Play Artificial Sound Effect" style="rounded=1;whiteSpace=wrap;html=1;fontSize=12;glass=0;strokeWidth=1;shadow=0;" vertex="1" parent="WIyWlLk6GJQsqaUBKTNV-1">
          <mxGeometry x="414" y="580" width="150" height="50" as="geometry" />
        </mxCell>
        <mxCell id="NzxyPe-S2gzE09yL93nO-20" value="." style="text;html=1;strokeColor=none;fillColor=none;align=center;verticalAlign=middle;whiteSpace=wrap;rounded=0;" vertex="1" parent="WIyWlLk6GJQsqaUBKTNV-1">
          <mxGeometry x="190" y="-30" width="60" height="30" as="geometry" />
        </mxCell>
        <mxCell id="NzxyPe-S2gzE09yL93nO-21" value="." style="text;html=1;strokeColor=none;fillColor=none;align=center;verticalAlign=middle;whiteSpace=wrap;rounded=0;" vertex="1" parent="WIyWlLk6GJQsqaUBKTNV-1">
          <mxGeometry x="-170" y="840" width="60" height="30" as="geometry" />
        </mxCell>
        <mxCell id="NzxyPe-S2gzE09yL93nO-23" value="&lt;b&gt;End&lt;/b&gt;" style="ellipse;whiteSpace=wrap;html=1;" vertex="1" parent="WIyWlLk6GJQsqaUBKTNV-1">
          <mxGeometry x="165" y="782.5" width="110" height="50" as="geometry" />
        </mxCell>
        <mxCell id="NzxyPe-S2gzE09yL93nO-26" value="Break Video into Frames" style="rounded=1;whiteSpace=wrap;html=1;fontSize=12;glass=0;strokeWidth=1;shadow=0;" vertex="1" parent="WIyWlLk6GJQsqaUBKTNV-1">
          <mxGeometry x="150" y="190" width="140" height="50" as="geometry" />
        </mxCell>
        <mxCell id="NzxyPe-S2gzE09yL93nO-30" value="" style="rounded=0;html=1;jettySize=auto;orthogonalLoop=1;fontSize=11;endArrow=block;endFill=0;endSize=8;strokeWidth=1;shadow=0;labelBackgroundColor=none;edgeStyle=orthogonalEdgeStyle;exitX=0.5;exitY=1;exitDx=0;exitDy=0;entryX=0.5;entryY=0;entryDx=0;entryDy=0;" edge="1" parent="WIyWlLk6GJQsqaUBKTNV-1" target="NzxyPe-S2gzE09yL93nO-31" source="NzxyPe-S2gzE09yL93nO-26">
          <mxGeometry relative="1" as="geometry">
            <mxPoint x="218.13" y="270" as="sourcePoint" />
            <mxPoint x="218.13" y="310" as="targetPoint" />
          </mxGeometry>
        </mxCell>
        <mxCell id="NzxyPe-S2gzE09yL93nO-31" value="Preprocess Frame" style="rounded=1;whiteSpace=wrap;html=1;fontSize=12;glass=0;strokeWidth=1;shadow=0;" vertex="1" parent="WIyWlLk6GJQsqaUBKTNV-1">
          <mxGeometry x="150" y="290" width="140" height="50" as="geometry" />
        </mxCell>
        <mxCell id="NzxyPe-S2gzE09yL93nO-34" value="Throw the frame into the Model" style="rounded=1;whiteSpace=wrap;html=1;" vertex="1" parent="WIyWlLk6GJQsqaUBKTNV-1">
          <mxGeometry x="150" y="400" width="141.87" height="60" as="geometry" />
        </mxCell>
        <mxCell id="NzxyPe-S2gzE09yL93nO-35" value="" style="endArrow=classic;html=1;rounded=0;exitX=0.5;exitY=1;exitDx=0;exitDy=0;" edge="1" parent="WIyWlLk6GJQsqaUBKTNV-1" source="NzxyPe-S2gzE09yL93nO-31" target="NzxyPe-S2gzE09yL93nO-34">
          <mxGeometry width="50" height="50" relative="1" as="geometry">
            <mxPoint x="400" y="410" as="sourcePoint" />
            <mxPoint x="450" y="360" as="targetPoint" />
          </mxGeometry>
        </mxCell>
        <mxCell id="NzxyPe-S2gzE09yL93nO-37" value="" style="endArrow=classic;html=1;rounded=0;exitX=0.5;exitY=1;exitDx=0;exitDy=0;" edge="1" parent="WIyWlLk6GJQsqaUBKTNV-1" source="NzxyPe-S2gzE09yL93nO-34" target="NzxyPe-S2gzE09yL93nO-15">
          <mxGeometry width="50" height="50" relative="1" as="geometry">
            <mxPoint x="340" y="530" as="sourcePoint" />
            <mxPoint x="390" y="480" as="targetPoint" />
          </mxGeometry>
        </mxCell>
        <mxCell id="NzxyPe-S2gzE09yL93nO-38" value="Yes" style="edgeStyle=orthogonalEdgeStyle;rounded=0;html=1;jettySize=auto;orthogonalLoop=1;fontSize=11;endArrow=block;endFill=0;endSize=8;strokeWidth=1;shadow=0;labelBackgroundColor=none;exitX=1;exitY=0.5;exitDx=0;exitDy=0;" edge="1" parent="WIyWlLk6GJQsqaUBKTNV-1" source="NzxyPe-S2gzE09yL93nO-15" target="NzxyPe-S2gzE09yL93nO-19">
          <mxGeometry x="-0.0007" y="10" relative="1" as="geometry">
            <mxPoint as="offset" />
            <Array as="points" />
            <mxPoint x="350" y="610" as="sourcePoint" />
            <mxPoint x="432" y="685" as="targetPoint" />
          </mxGeometry>
        </mxCell>
        <mxCell id="NzxyPe-S2gzE09yL93nO-39" value="Send SMS" style="rounded=1;whiteSpace=wrap;html=1;fontSize=12;glass=0;strokeWidth=1;shadow=0;" vertex="1" parent="WIyWlLk6GJQsqaUBKTNV-1">
          <mxGeometry x="630" y="660" width="100" height="35" as="geometry" />
        </mxCell>
        <mxCell id="NzxyPe-S2gzE09yL93nO-40" value="Send Email" style="rounded=1;whiteSpace=wrap;html=1;fontSize=12;glass=0;strokeWidth=1;shadow=0;" vertex="1" parent="WIyWlLk6GJQsqaUBKTNV-1">
          <mxGeometry x="630" y="590" width="100" height="30" as="geometry" />
        </mxCell>
        <mxCell id="NzxyPe-S2gzE09yL93nO-52" value="" style="edgeStyle=orthogonalEdgeStyle;rounded=0;orthogonalLoop=1;jettySize=auto;html=1;" edge="1" parent="WIyWlLk6GJQsqaUBKTNV-1" source="NzxyPe-S2gzE09yL93nO-41" target="NzxyPe-S2gzE09yL93nO-42">
          <mxGeometry relative="1" as="geometry" />
        </mxCell>
        <mxCell id="NzxyPe-S2gzE09yL93nO-41" value="Update conflicts information to database" style="rounded=1;whiteSpace=wrap;html=1;fontSize=12;glass=0;strokeWidth=1;shadow=0;" vertex="1" parent="WIyWlLk6GJQsqaUBKTNV-1">
          <mxGeometry x="605" y="742.5" width="150" height="50" as="geometry" />
        </mxCell>
        <mxCell id="NzxyPe-S2gzE09yL93nO-42" value="&lt;b&gt;Database&lt;/b&gt;" style="shape=cylinder3;whiteSpace=wrap;html=1;boundedLbl=1;backgroundOutline=1;size=15;" vertex="1" parent="WIyWlLk6GJQsqaUBKTNV-1">
          <mxGeometry x="645" y="832.5" width="70" height="90" as="geometry" />
        </mxCell>
        <mxCell id="NzxyPe-S2gzE09yL93nO-43" value="" style="edgeStyle=orthogonalEdgeStyle;rounded=0;html=1;jettySize=auto;orthogonalLoop=1;fontSize=11;endArrow=block;endFill=0;endSize=8;strokeWidth=1;shadow=0;labelBackgroundColor=none;exitX=1;exitY=0.5;exitDx=0;exitDy=0;entryX=0;entryY=0.5;entryDx=0;entryDy=0;" edge="1" parent="WIyWlLk6GJQsqaUBKTNV-1" source="NzxyPe-S2gzE09yL93nO-19" target="NzxyPe-S2gzE09yL93nO-40">
          <mxGeometry x="-0.0007" y="10" relative="1" as="geometry">
            <mxPoint as="offset" />
            <Array as="points">
              <mxPoint x="630" y="605" />
              <mxPoint x="630" y="605" />
            </Array>
            <mxPoint x="620" y="604.17" as="sourcePoint" />
            <mxPoint x="660" y="604" as="targetPoint" />
          </mxGeometry>
        </mxCell>
        <mxCell id="NzxyPe-S2gzE09yL93nO-50" value="" style="endArrow=classic;html=1;rounded=0;exitX=0.5;exitY=1;exitDx=0;exitDy=0;entryX=0.5;entryY=0;entryDx=0;entryDy=0;" edge="1" parent="WIyWlLk6GJQsqaUBKTNV-1" source="NzxyPe-S2gzE09yL93nO-39" target="NzxyPe-S2gzE09yL93nO-41">
          <mxGeometry width="50" height="50" relative="1" as="geometry">
            <mxPoint x="790" y="782.5" as="sourcePoint" />
            <mxPoint x="840" y="732.5" as="targetPoint" />
          </mxGeometry>
        </mxCell>
        <mxCell id="NzxyPe-S2gzE09yL93nO-51" value="" style="endArrow=classic;html=1;rounded=0;exitX=0.5;exitY=1;exitDx=0;exitDy=0;entryX=0.5;entryY=0;entryDx=0;entryDy=0;entryPerimeter=0;" edge="1" parent="WIyWlLk6GJQsqaUBKTNV-1" source="NzxyPe-S2gzE09yL93nO-41" target="NzxyPe-S2gzE09yL93nO-42">
          <mxGeometry width="50" height="50" relative="1" as="geometry">
            <mxPoint x="690" y="705.5" as="sourcePoint" />
            <mxPoint x="690" y="752.5" as="targetPoint" />
          </mxGeometry>
        </mxCell>
        <mxCell id="NzxyPe-S2gzE09yL93nO-64" value="" style="endArrow=classic;html=1;rounded=0;exitX=0.5;exitY=1;exitDx=0;exitDy=0;entryX=0.5;entryY=0;entryDx=0;entryDy=0;" edge="1" parent="WIyWlLk6GJQsqaUBKTNV-1" source="NzxyPe-S2gzE09yL93nO-40" target="NzxyPe-S2gzE09yL93nO-39">
          <mxGeometry width="50" height="50" relative="1" as="geometry">
            <mxPoint x="800" y="710" as="sourcePoint" />
            <mxPoint x="850" y="660" as="targetPoint" />
          </mxGeometry>
        </mxCell>
        <mxCell id="NzxyPe-S2gzE09yL93nO-65" value="" style="endArrow=classic;html=1;rounded=0;exitX=0;exitY=0.5;exitDx=0;exitDy=0;entryX=0;entryY=0.25;entryDx=0;entryDy=0;" edge="1" parent="WIyWlLk6GJQsqaUBKTNV-1" source="NzxyPe-S2gzE09yL93nO-15" target="NzxyPe-S2gzE09yL93nO-11">
          <mxGeometry width="50" height="50" relative="1" as="geometry">
            <mxPoint x="-60" y="600" as="sourcePoint" />
            <mxPoint y="90.89311079545455" as="targetPoint" />
            <Array as="points">
              <mxPoint x="-20" y="605" />
              <mxPoint x="-20" y="115" />
            </Array>
          </mxGeometry>
        </mxCell>
        <mxCell id="NzxyPe-S2gzE09yL93nO-66" value="No" style="text;html=1;strokeColor=none;fillColor=none;align=center;verticalAlign=middle;whiteSpace=wrap;rounded=0;" vertex="1" parent="WIyWlLk6GJQsqaUBKTNV-1">
          <mxGeometry x="60" y="570" width="60" height="30" as="geometry" />
        </mxCell>
        <mxCell id="NzxyPe-S2gzE09yL93nO-67" value="" style="endArrow=classic;html=1;rounded=0;entryX=0.5;entryY=0;entryDx=0;entryDy=0;exitX=0.5;exitY=1;exitDx=0;exitDy=0;" edge="1" parent="WIyWlLk6GJQsqaUBKTNV-1" source="NzxyPe-S2gzE09yL93nO-15" target="NzxyPe-S2gzE09yL93nO-23">
          <mxGeometry width="50" height="50" relative="1" as="geometry">
            <mxPoint x="220" y="860" as="sourcePoint" />
            <mxPoint x="219.99" y="800" as="targetPoint" />
          </mxGeometry>
        </mxCell>
        <mxCell id="NzxyPe-S2gzE09yL93nO-70" value="." style="text;html=1;strokeColor=none;fillColor=none;align=center;verticalAlign=middle;whiteSpace=wrap;rounded=0;" vertex="1" parent="WIyWlLk6GJQsqaUBKTNV-1">
          <mxGeometry x="190" y="-30" width="60" height="30" as="geometry" />
        </mxCell>
        <mxCell id="NzxyPe-S2gzE09yL93nO-72" value="." style="text;html=1;strokeColor=none;fillColor=none;align=center;verticalAlign=middle;whiteSpace=wrap;rounded=0;" vertex="1" parent="WIyWlLk6GJQsqaUBKTNV-1">
          <mxGeometry x="655" y="930" width="60" height="30" as="geometry" />
        </mxCell>
        <mxCell id="NzxyPe-S2gzE09yL93nO-73" value="." style="text;html=1;strokeColor=none;fillColor=none;align=center;verticalAlign=middle;whiteSpace=wrap;rounded=0;" vertex="1" parent="WIyWlLk6GJQsqaUBKTNV-1">
          <mxGeometry x="750" y="752.5" width="60" height="30" as="geometry" />
        </mxCell>
        <mxCell id="NzxyPe-S2gzE09yL93nO-74" value="." style="text;html=1;strokeColor=none;fillColor=none;align=center;verticalAlign=middle;whiteSpace=wrap;rounded=0;" vertex="1" parent="WIyWlLk6GJQsqaUBKTNV-1">
          <mxGeometry x="-70" y="210" width="60" height="30" as="geometry" />
        </mxCell>
      </root>
    </mxGraphModel>
  </diagram>
</mxfile>
